<svg xmlns="http://www.w3.org/2000/svg" width="920" height="560" viewBox="0 0 920 560" role="img" aria-labelledby="title desc">
  <title id="title">Concept B Jade-Button Dragon Page</title>
  <desc id="desc">Original chibi dragon-horn girl mascot concept with jade button horns, neutral and happy expressions.</desc>
  <style>
    :root {
      --bg: oklch(0.96 0.02 154);
      --panel: oklch(0.995 0.01 116);
      --grid: oklch(0.83 0.035 155);
      --ink: oklch(0.17 0.035 251);
      --line-soft: oklch(0.36 0.045 236);
      --face: oklch(0.91 0.052 47);
      --cheek: oklch(0.77 0.12 18);
      --hair: oklch(0.66 0.12 73);
      --hair-shadow: oklch(0.48 0.10 65);
      --horn: oklch(0.68 0.11 165);
      --horn-light: oklch(0.83 0.08 164);
      --paper: oklch(0.94 0.035 97);
      --sleeve: oklch(0.72 0.11 143);
      --apron: oklch(0.58 0.12 194);
      --seal: oklch(0.60 0.18 32);
      --brass: oklch(0.72 0.10 82);
      --shadow: oklch(0.55 0.04 190 / 0.22);
    }
    .sheet { fill: var(--bg); }
    .card { fill: var(--panel); stroke: var(--grid); stroke-width: 2; }
    .guide { stroke: var(--grid); stroke-width: 1.5; opacity: 0.42; }
    .title { font: 700 27px ui-sans-serif, system-ui, -apple-system, BlinkMacSystemFont, "Segoe UI", sans-serif; fill: var(--ink); letter-spacing: 0; }
    .subtitle, .label { font: 650 18px ui-sans-serif, system-ui, -apple-system, BlinkMacSystemFont, "Segoe UI", sans-serif; fill: var(--line-soft); letter-spacing: 0; }
    .note { font: 500 15px ui-sans-serif, system-ui, -apple-system, BlinkMacSystemFont, "Segoe UI", sans-serif; fill: var(--line-soft); letter-spacing: 0; }
    .part { stroke: var(--ink); stroke-width: 8; stroke-linecap: round; stroke-linejoin: round; vector-effect: non-scaling-stroke; }
    .line { fill: none; stroke: var(--ink); stroke-width: 7; stroke-linecap: round; stroke-linejoin: round; vector-effect: non-scaling-stroke; }
    .thin { fill: none; stroke: var(--ink); stroke-width: 5; stroke-linecap: round; stroke-linejoin: round; vector-effect: non-scaling-stroke; }
  </style>

  <rect class="sheet" width="920" height="560"/>
  <path class="guide" d="M60 98H860M60 488H860M460 116V488"/>
  <rect class="card" x="44" y="36" width="832" height="488" rx="26"/>
  <text class="title" x="70" y="78">Concept B · Jade-Button Dragon Page</text>
  <text class="note" x="70" y="105">low crescent jade horns · round side buns · square talisman sleeves · maker page stance</text>

  <g transform="translate(245 322)">
    <ellipse cx="0" cy="151" rx="104" ry="23" fill="var(--shadow)"/>
    <path class="part" fill="var(--horn)" d="M-91 -112C-127 -109 -144 -87 -135 -68C-115 -86 -96 -88 -77 -80C-79 -93 -83 -103 -91 -112Z"/>
    <path class="part" fill="var(--horn)" d="M91 -112C127 -109 144 -87 135 -68C115 -86 96 -88 77 -80C79 -93 83 -103 91 -112Z"/>
    <path class="thin" d="M-119 -86C-107 -95 -94 -98 -81 -96M119 -86C107 -95 94 -98 81 -96" stroke="var(--horn-light)"/>
    <circle class="part" cx="-88" cy="-70" r="34" fill="var(--hair)"/>
    <circle class="part" cx="88" cy="-70" r="34" fill="var(--hair)"/>
    <path class="part" fill="var(--face)" d="M-91 -77C-94 -123 -57 -152 0 -152C57 -152 94 -123 91 -77C94 -22 57 14 0 14C-57 14 -94 -22 -91 -77Z"/>
    <path class="part" fill="var(--hair)" d="M-90 -93C-73 -151 -29 -174 19 -160C63 -147 88 -120 93 -90C61 -108 29 -105 9 -91C-12 -115 -48 -120 -90 -93Z"/>
    <path class="part" fill="var(--hair)" d="M-78 -99C-59 -80 -40 -71 -20 -70C-31 -94 -24 -116 0 -134C7 -108 24 -88 52 -78C53 -96 64 -105 87 -94C75 -129 46 -157 4 -161C-44 -165 -74 -138 -78 -99Z"/>
    <path class="thin" d="M-38 -143C-25 -127 -19 -107 -25 -84M23 -146C35 -128 34 -109 22 -88" stroke="var(--hair-shadow)"/>

    <path class="part" fill="var(--paper)" d="M-52 11H52L66 120C39 132 -39 132 -66 120Z"/>
    <path class="part" fill="var(--apron)" d="M-31 28H31L42 107C18 117 -18 117 -42 107Z"/>
    <path class="line" d="M-52 39L-105 35M52 39L105 35"/>
    <path class="part" fill="var(--sleeve)" d="M-130 23H-88L-88 75H-130Z"/>
    <path class="part" fill="var(--sleeve)" d="M130 23H88L88 75H130Z"/>
    <path class="part" fill="var(--brass)" d="M-20 12H20L12 33H-12Z"/>
    <path class="part" fill="var(--seal)" d="M-60 48L-37 40L-27 66L-50 74Z"/>
    <path class="part" fill="var(--ink)" d="M-40 119L-31 158H-2L-9 119Z"/>
    <path class="part" fill="var(--ink)" d="M40 119L31 158H2L9 119Z"/>

    <rect class="part" x="-54" y="-69" width="22" height="45" rx="5" fill="oklch(0.91 0.028 215)"/>
    <rect class="part" x="32" y="-69" width="22" height="45" rx="5" fill="oklch(0.91 0.028 215)"/>
    <path class="thin" d="M-8 -27Q0 -20 8 -27"/>
    <circle cx="-64" cy="-35" r="8" fill="var(--cheek)" opacity="0.52"/>
    <circle cx="64" cy="-35" r="8" fill="var(--cheek)" opacity="0.52"/>
    <text class="label" x="-36" y="206">neutral</text>
  </g>

  <g transform="translate(675 322)">
    <ellipse cx="0" cy="151" rx="104" ry="23" fill="var(--shadow)"/>
    <path class="part" fill="var(--horn)" d="M-91 -112C-127 -109 -144 -87 -135 -68C-115 -86 -96 -88 -77 -80C-79 -93 -83 -103 -91 -112Z"/>
    <path class="part" fill="var(--horn)" d="M91 -112C127 -109 144 -87 135 -68C115 -86 96 -88 77 -80C79 -93 83 -103 91 -112Z"/>
    <path class="thin" d="M-119 -86C-107 -95 -94 -98 -81 -96M119 -86C107 -95 94 -98 81 -96" stroke="var(--horn-light)"/>
    <circle class="part" cx="-88" cy="-70" r="34" fill="var(--hair)"/>
    <circle class="part" cx="88" cy="-70" r="34" fill="var(--hair)"/>
    <path class="part" fill="var(--face)" d="M-91 -77C-94 -123 -57 -152 0 -152C57 -152 94 -123 91 -77C94 -22 57 14 0 14C-57 14 -94 -22 -91 -77Z"/>
    <path class="part" fill="var(--hair)" d="M-90 -93C-73 -151 -29 -174 19 -160C63 -147 88 -120 93 -90C61 -108 29 -105 9 -91C-12 -115 -48 -120 -90 -93Z"/>
    <path class="part" fill="var(--hair)" d="M-78 -99C-59 -80 -40 -71 -20 -70C-31 -94 -24 -116 0 -134C7 -108 24 -88 52 -78C53 -96 64 -105 87 -94C75 -129 46 -157 4 -161C-44 -165 -74 -138 -78 -99Z"/>
    <path class="thin" d="M-38 -143C-25 -127 -19 -107 -25 -84M23 -146C35 -128 34 -109 22 -88" stroke="var(--hair-shadow)"/>

    <path class="part" fill="var(--paper)" d="M-52 11H52L66 120C39 132 -39 132 -66 120Z"/>
    <path class="part" fill="var(--apron)" d="M-31 28H31L42 107C18 117 -18 117 -42 107Z"/>
    <path class="line" d="M-52 39L-105 58M52 39L105 58"/>
    <path class="part" fill="var(--sleeve)" d="M-128 49H-86L-86 97H-128Z"/>
    <path class="part" fill="var(--sleeve)" d="M128 49H86L86 97H128Z"/>
    <path class="part" fill="var(--brass)" d="M-20 12H20L12 33H-12Z"/>
    <path class="part" fill="var(--seal)" d="M-60 48L-37 40L-27 66L-50 74Z"/>
    <path class="part" fill="var(--ink)" d="M-40 119L-31 158H-2L-9 119Z"/>
    <path class="part" fill="var(--ink)" d="M40 119L31 158H2L9 119Z"/>

    <path class="line" d="M-58 -53Q-43 -39 -27 -53M27 -53Q43 -39 58 -53"/>
    <path class="part" fill="oklch(0.76 0.15 28)" d="M-16 -31C-13 -12 13 -12 16 -31C8 -22 -8 -22 -16 -31Z"/>
    <circle cx="-65" cy="-35" r="10" fill="var(--cheek)" opacity="0.72"/>
    <circle cx="65" cy="-35" r="10" fill="var(--cheek)" opacity="0.72"/>
    <text class="label" x="-28" y="206">happy</text>
  </g>
</svg>
