<svg xmlns="http://www.w3.org/2000/svg" width="920" height="560" viewBox="0 0 920 560" role="img" aria-labelledby="title desc">
  <title id="title">Concept C Cloud-Knot Dragon Tinkerer</title>
  <desc id="desc">Original chibi dragon-horn girl mascot concept with cloud-knot hair and tiny porcelain hornlets, neutral and happy expressions.</desc>
  <style>
    :root {
      --bg: oklch(0.965 0.018 285);
      --panel: oklch(0.995 0.008 286);
      --grid: oklch(0.84 0.035 286);
      --ink: oklch(0.17 0.035 275);
      --line-soft: oklch(0.38 0.05 276);
      --face: oklch(0.91 0.045 43);
      --cheek: oklch(0.77 0.12 18);
      --hair: oklch(0.57 0.10 293);
      --hair-light: oklch(0.72 0.075 300);
      --horn: oklch(0.88 0.035 99);
      --horn-shadow: oklch(0.74 0.06 89);
      --paper: oklch(0.93 0.03 82);
      --coat: oklch(0.63 0.095 245);
      --satchel: oklch(0.56 0.08 54);
      --brass: oklch(0.73 0.105 82);
      --ember: oklch(0.63 0.17 39);
      --shadow: oklch(0.54 0.04 280 / 0.23);
    }
    .sheet { fill: var(--bg); }
    .card { fill: var(--panel); stroke: var(--grid); stroke-width: 2; }
    .guide { stroke: var(--grid); stroke-width: 1.5; opacity: 0.42; }
    .title { font: 700 27px ui-sans-serif, system-ui, -apple-system, BlinkMacSystemFont, "Segoe UI", sans-serif; fill: var(--ink); letter-spacing: 0; }
    .subtitle, .label { font: 650 18px ui-sans-serif, system-ui, -apple-system, BlinkMacSystemFont, "Segoe UI", sans-serif; fill: var(--line-soft); letter-spacing: 0; }
    .note { font: 500 15px ui-sans-serif, system-ui, -apple-system, BlinkMacSystemFont, "Segoe UI", sans-serif; fill: var(--line-soft); letter-spacing: 0; }
    .part { stroke: var(--ink); stroke-width: 8; stroke-linecap: round; stroke-linejoin: round; vector-effect: non-scaling-stroke; }
    .line { fill: none; stroke: var(--ink); stroke-width: 7; stroke-linecap: round; stroke-linejoin: round; vector-effect: non-scaling-stroke; }
    .thin { fill: none; stroke: var(--ink); stroke-width: 5; stroke-linecap: round; stroke-linejoin: round; vector-effect: non-scaling-stroke; }
  </style>

  <rect class="sheet" width="920" height="560"/>
  <path class="guide" d="M60 98H860M60 488H860M460 116V488"/>
  <rect class="card" x="44" y="36" width="832" height="488" rx="26"/>
  <text class="title" x="70" y="78">Concept C · Cloud-Knot Dragon Tinkerer</text>
  <text class="note" x="70" y="105">cloud-knot hair cap · tiny porcelain hornlets · seal satchel · soft maker silhouette</text>

  <g transform="translate(245 322)">
    <ellipse cx="0" cy="151" rx="104" ry="23" fill="var(--shadow)"/>
    <path class="part" fill="var(--horn)" d="M-58 -144C-76 -168 -65 -194 -39 -199C-32 -178 -39 -157 -53 -140Z"/>
    <path class="part" fill="var(--horn)" d="M58 -144C76 -168 65 -194 39 -199C32 -178 39 -157 53 -140Z"/>
    <path class="thin" d="M-60 -170C-53 -164 -49 -157 -47 -150M60 -170C53 -164 49 -157 47 -150" stroke="var(--horn-shadow)"/>
    <path class="part" fill="var(--hair)" d="M-88 -78C-109 -101 -96 -130 -68 -134C-66 -160 -35 -173 -12 -158C12 -180 48 -166 52 -138C86 -138 105 -108 87 -80C104 -37 78 15 21 18C2 34 -34 30 -46 13C-87 10 -110 -38 -88 -78Z"/>
    <path class="part" fill="var(--face)" d="M-89 -75C-92 -119 -56 -149 0 -149C56 -149 92 -119 89 -75C92 -22 56 15 0 15C-56 15 -92 -22 -89 -75Z"/>
    <path class="part" fill="var(--hair)" d="M-88 -95C-72 -132 -41 -151 1 -151C45 -151 75 -130 88 -94C60 -103 31 -99 11 -84C-8 -104 -47 -111 -88 -95Z"/>
    <path class="part" fill="var(--hair)" d="M-74 -98C-58 -82 -42 -75 -25 -74C-31 -96 -21 -113 -2 -126C5 -103 22 -87 48 -79C48 -96 62 -105 84 -94C66 -132 36 -148 2 -149C-37 -150 -64 -132 -74 -98Z"/>
    <path class="thin" d="M-39 -135C-24 -120 -20 -102 -27 -85M20 -137C32 -121 31 -105 19 -89" stroke="var(--hair-light)"/>

    <path class="part" fill="var(--coat)" d="M-56 10H56L73 116C50 132 -48 132 -73 116Z"/>
    <path class="part" fill="var(--paper)" d="M-35 28H34L45 105C20 116 -20 116 -45 105Z"/>
    <path class="line" d="M-56 38L-101 63M56 38L101 63"/>
    <path class="part" fill="var(--coat)" d="M-121 54C-139 63 -134 88 -113 90C-93 84 -88 65 -101 56Z"/>
    <path class="part" fill="var(--coat)" d="M121 54C139 63 134 88 113 90C93 84 88 65 101 56Z"/>
    <path class="part" fill="var(--brass)" d="M-20 12H20L12 33H-12Z"/>
    <path class="part" fill="var(--satchel)" d="M42 46H83L88 88L48 96Z"/>
    <path class="thin" d="M45 47L-26 18" stroke="var(--brass)"/>
    <circle class="part" cx="66" cy="65" r="11" fill="var(--ember)"/>
    <path class="part" fill="var(--ink)" d="M-41 116L-34 157H-5L-10 116Z"/>
    <path class="part" fill="var(--ink)" d="M41 116L34 157H5L10 116Z"/>

    <rect class="part" x="-54" y="-68" width="22" height="45" rx="5" fill="oklch(0.92 0.025 220)"/>
    <rect class="part" x="32" y="-68" width="22" height="45" rx="5" fill="oklch(0.92 0.025 220)"/>
    <path class="thin" d="M-8 -26Q0 -19 8 -26"/>
    <circle cx="-63" cy="-34" r="8" fill="var(--cheek)" opacity="0.54"/>
    <circle cx="63" cy="-34" r="8" fill="var(--cheek)" opacity="0.54"/>
    <text class="label" x="-36" y="206">neutral</text>
  </g>

  <g transform="translate(675 322)">
    <ellipse cx="0" cy="151" rx="104" ry="23" fill="var(--shadow)"/>
    <path class="part" fill="var(--horn)" d="M-58 -144C-76 -168 -65 -194 -39 -199C-32 -178 -39 -157 -53 -140Z"/>
    <path class="part" fill="var(--horn)" d="M58 -144C76 -168 65 -194 39 -199C32 -178 39 -157 53 -140Z"/>
    <path class="thin" d="M-60 -170C-53 -164 -49 -157 -47 -150M60 -170C53 -164 49 -157 47 -150" stroke="var(--horn-shadow)"/>
    <path class="part" fill="var(--hair)" d="M-88 -78C-109 -101 -96 -130 -68 -134C-66 -160 -35 -173 -12 -158C12 -180 48 -166 52 -138C86 -138 105 -108 87 -80C104 -37 78 15 21 18C2 34 -34 30 -46 13C-87 10 -110 -38 -88 -78Z"/>
    <path class="part" fill="var(--face)" d="M-89 -75C-92 -119 -56 -149 0 -149C56 -149 92 -119 89 -75C92 -22 56 15 0 15C-56 15 -92 -22 -89 -75Z"/>
    <path class="part" fill="var(--hair)" d="M-88 -95C-72 -132 -41 -151 1 -151C45 -151 75 -130 88 -94C60 -103 31 -99 11 -84C-8 -104 -47 -111 -88 -95Z"/>
    <path class="part" fill="var(--hair)" d="M-74 -98C-58 -82 -42 -75 -25 -74C-31 -96 -21 -113 -2 -126C5 -103 22 -87 48 -79C48 -96 62 -105 84 -94C66 -132 36 -148 2 -149C-37 -150 -64 -132 -74 -98Z"/>
    <path class="thin" d="M-39 -135C-24 -120 -20 -102 -27 -85M20 -137C32 -121 31 -105 19 -89" stroke="var(--hair-light)"/>

    <path class="part" fill="var(--coat)" d="M-56 10H56L73 116C50 132 -48 132 -73 116Z"/>
    <path class="part" fill="var(--paper)" d="M-35 28H34L45 105C20 116 -20 116 -45 105Z"/>
    <path class="line" d="M-56 38L-106 38M56 38L106 38"/>
    <path class="part" fill="var(--coat)" d="M-127 29C-146 35 -144 60 -124 66C-104 64 -96 44 -106 35Z"/>
    <path class="part" fill="var(--coat)" d="M127 29C146 35 144 60 124 66C104 64 96 44 106 35Z"/>
    <path class="part" fill="var(--brass)" d="M-20 12H20L12 33H-12Z"/>
    <path class="part" fill="var(--satchel)" d="M42 46H83L88 88L48 96Z"/>
    <path class="thin" d="M45 47L-26 18" stroke="var(--brass)"/>
    <circle class="part" cx="66" cy="65" r="11" fill="var(--ember)"/>
    <path class="part" fill="var(--ink)" d="M-41 116L-34 157H-5L-10 116Z"/>
    <path class="part" fill="var(--ink)" d="M41 116L34 157H5L10 116Z"/>

    <path class="line" d="M-58 -52Q-43 -38 -27 -52M27 -52Q43 -38 58 -52"/>
    <path class="part" fill="oklch(0.76 0.15 28)" d="M-16 -30C-13 -11 13 -11 16 -30C8 -21 -8 -21 -16 -30Z"/>
    <circle cx="-65" cy="-34" r="10" fill="var(--cheek)" opacity="0.73"/>
    <circle cx="65" cy="-34" r="10" fill="var(--cheek)" opacity="0.73"/>
    <text class="label" x="-28" y="206">happy</text>
  </g>
</svg>
