<svg xmlns="http://www.w3.org/2000/svg" viewBox="-10 -14 220 264" width="440" height="528">
    
        <path d="M118 38 L138 -2 L154 14 L142 30 L150 38 L126 52 Z" fill="#33373d" stroke="#23262a" stroke-linejoin="round" stroke-linecap="round" stroke-width="6"/>
        <path d="M130 30 L141 9 L148 17 L138 30 Z" fill="#d9a04c" opacity="0.85"/>
        <circle cx="143" cy="14" r="4.5" fill="#d24b42"/>
        <path d="M66 46 L50 22 L42 40 L56 54 Z" fill="#33373d" stroke="#23262a" stroke-linejoin="round" stroke-linecap="round" stroke-width="6"/>
    <path d="M100 18
    C 52 18 30 52 30 92
    C 30 116 34 138 28 158 L 44 150 L 50 168 L 64 156 L 72 172 L 84 162
    L 100 170 L 116 162 L 128 172 L 136 156 L 150 168 L 156 150 L 172 158
    C 166 138 170 116 170 92
    C 170 52 148 18 100 18 Z" fill="#33373d" stroke="#23262a" stroke-linejoin="round" stroke-linecap="round" stroke-width="7"/>
    
    <path d="M100 160
      C 120 160 132 172 135 196 L 138 220 C 139 229 130 234 100 234 C 70 234 61 229 62 220 L 65 196
      C 68 172 80 160 100 160 Z" fill="#2f3237" stroke="#23262a" stroke-linejoin="round" stroke-linecap="round" stroke-width="6"/>
    <path d="M74 168 C 84 177 116 177 126 168 L 129 179 C 116 189 84 189 71 179 Z"
      fill="#d9a04c" stroke="#23262a" stroke-linejoin="round" stroke-linecap="round" stroke-width="4.5"/>
    <path d="M118 188 L 126 224" stroke="#d24b42" stroke-width="4" stroke-linecap="round" opacity="0.9"/>
    <ellipse cx="66" cy="198" rx="8.5" ry="9.5" fill="#f2e8dc" stroke="#23262a" stroke-linejoin="round" stroke-linecap="round" stroke-width="4.5"/>
    <ellipse cx="134" cy="198" rx="8.5" ry="9.5" fill="#f2e8dc" stroke="#23262a" stroke-linejoin="round" stroke-linecap="round" stroke-width="4.5"/>
    <rect x="76" y="228" width="21" height="10" rx="5" fill="#3c4047" stroke="#23262a" stroke-linejoin="round" stroke-linecap="round" stroke-width="4"/>
    <rect x="103" y="228" width="21" height="10" rx="5" fill="#3c4047" stroke="#23262a" stroke-linejoin="round" stroke-linecap="round" stroke-width="4"/>
    <path d="M100 44
    C 142 44 162 72 162 104
    C 162 136 136 156 100 156
    C 64 156 38 136 38 104
    C 38 72 58 44 100 44 Z" fill="#f2e8dc" stroke="#23262a" stroke-linejoin="round" stroke-linecap="round" stroke-width="6"/>
    
    <path d="M36 100
      C 34 56 62 34 100 34
      C 138 34 166 56 164 100
      L 152 82 L 146 106 L 132 76 L 122 104 L 106 68 L 96 108 L 82 72 L 70 102 L 58 78 L 46 104 Z"
      fill="#33373d" stroke="#23262a" stroke-linejoin="round" stroke-linecap="round" stroke-width="6"/>
    <path d="M104 70 L 96 106 L 88 92 Z" fill="#33373d"/>
    <path d="M60 50 C 72 42 88 38 100 38 L 96 52 L 78 56 Z" fill="#4c545e" opacity="0.7"/>
    <path d="M126 52 C 134 60 138 70 139 82 L 128 72 Z" fill="#5d7a8c" opacity="0.8"/>
    <g transform="translate(141 64)">
          <circle r="7.5" fill="#d24b42"/>
          <circle r="2.6" fill="#33373d"/>
          <rect x="-1.1" y="-7.5" width="2.2" height="4" fill="#33373d"/>
        </g>
    
    
    <ellipse cx="56" cy="128" rx="9" ry="5" fill="#e8b3a0" opacity="0.65"/>
    <ellipse cx="144" cy="128" rx="9" ry="5" fill="#e8b3a0" opacity="0.65"/>
        <path d="M-12 116 Q 0 124 12 116" transform="translate(68 0)" fill="none" stroke="#23262a" stroke-width="5" stroke-linecap="round"/>
        <path d="M-12 116 Q 0 124 12 116" transform="translate(132 0)" fill="none" stroke="#23262a" stroke-width="5" stroke-linecap="round"/>
        <path d="M93 140 Q 100 146 107 140" fill="none" stroke="#23262a" stroke-width="4.5" stroke-linecap="round"/>
    <g transform="translate(168 178)"><rect x="-12" y="-16" width="24" height="32" rx="4" fill="#fdfbf7" stroke="#23262a" stroke-linejoin="round" stroke-linecap="round" stroke-width="4"/>
        <rect x="-6" y="-20" width="12" height="7" rx="3" fill="#d9a04c" stroke="#23262a" stroke-linejoin="round" stroke-linecap="round" stroke-width="3"/>
        <path d="M-6 -6 L 6 -6 M-6 2 L 6 2 M-6 10 L 2 10" stroke="#9c6f2e" stroke-width="2.5" stroke-linecap="round"/></g>
  </svg>