<svg xmlns="http://www.w3.org/2000/svg" viewBox="-10 -14 220 264" width="440" height="528">
    
        <path d="M48 64 L22 48 L28 68 L46 76 Z" fill="#33373d" stroke="#23262a" stroke-linejoin="round" stroke-linecap="round" stroke-width="6"/>
        <path d="M152 64 L178 48 L172 68 L154 76 Z" fill="#33373d" stroke="#23262a" stroke-linejoin="round" stroke-linecap="round" stroke-width="6"/>
        <path d="M160 62 L172 54 L169 64 L158 68 Z" fill="#c96a4a" opacity="0.85"/>
        <circle cx="168" cy="58" r="4.5" fill="#d24b42"/>
    <path d="M100 18
    C 52 18 30 52 30 92
    C 30 116 34 138 28 158 L 44 150 L 50 168 L 64 156 L 72 172 L 84 162
    L 100 170 L 116 162 L 128 172 L 136 156 L 150 168 L 156 150 L 172 158
    C 166 138 170 116 170 92
    C 170 52 148 18 100 18 Z" fill="#33373d" stroke="#23262a" stroke-linejoin="round" stroke-linecap="round" stroke-width="7"/>
    
    <path d="M100 160
      C 120 160 132 172 135 196 L 138 220 C 139 229 130 234 100 234 C 70 234 61 229 62 220 L 65 196
      C 68 172 80 160 100 160 Z" fill="#2f3237" stroke="#23262a" stroke-linejoin="round" stroke-linecap="round" stroke-width="6"/>
    <path d="M74 168 C 84 177 116 177 126 168 L 129 179 C 116 189 84 189 71 179 Z"
      fill="#c96a4a" stroke="#23262a" stroke-linejoin="round" stroke-linecap="round" stroke-width="4.5"/>
    <path d="M118 188 L 126 224" stroke="#d24b42" stroke-width="4" stroke-linecap="round" opacity="0.9"/>
    <ellipse cx="66" cy="198" rx="8.5" ry="9.5" fill="#f2e8dc" stroke="#23262a" stroke-linejoin="round" stroke-linecap="round" stroke-width="4.5"/>
    <ellipse cx="134" cy="198" rx="8.5" ry="9.5" fill="#f2e8dc" stroke="#23262a" stroke-linejoin="round" stroke-linecap="round" stroke-width="4.5"/>
    <rect x="76" y="228" width="21" height="10" rx="5" fill="#3c4047" stroke="#23262a" stroke-linejoin="round" stroke-linecap="round" stroke-width="4"/>
    <rect x="103" y="228" width="21" height="10" rx="5" fill="#3c4047" stroke="#23262a" stroke-linejoin="round" stroke-linecap="round" stroke-width="4"/>
    <path d="M100 44
    C 142 44 162 72 162 104
    C 162 136 136 156 100 156
    C 64 156 38 136 38 104
    C 38 72 58 44 100 44 Z" fill="#f2e8dc" stroke="#23262a" stroke-linejoin="round" stroke-linecap="round" stroke-width="6"/>
    
    <path d="M36 100
      C 34 56 62 34 100 34
      C 138 34 166 56 164 100
      L 152 82 L 146 106 L 132 76 L 122 104 L 106 68 L 96 108 L 82 72 L 70 102 L 58 78 L 46 104 Z"
      fill="#33373d" stroke="#23262a" stroke-linejoin="round" stroke-linecap="round" stroke-width="6"/>
    <path d="M104 70 L 96 106 L 88 92 Z" fill="#33373d"/>
    <path d="M60 50 C 72 42 88 38 100 38 L 96 52 L 78 56 Z" fill="#4c545e" opacity="0.7"/>
    <path d="M126 52 C 134 60 138 70 139 82 L 128 72 Z" fill="#5d7a8c" opacity="0.8"/>
    <g transform="translate(141 64)">
          <circle r="7.5" fill="#d24b42"/>
          <circle r="2.6" fill="#33373d"/>
          <rect x="-1.1" y="-7.5" width="2.2" height="4" fill="#33373d"/>
        </g>
    <circle cx="128" cy="116" r="14" fill="none" stroke="#8f4630" stroke-width="3.5"/>
        <path d="M140 106 L 148 98" stroke="#8f4630" stroke-width="3.5" stroke-linecap="round"/>
    
    <ellipse cx="56" cy="128" rx="9" ry="5" fill="#e8b3a0" opacity="0.65"/>
    <ellipse cx="144" cy="128" rx="9" ry="5" fill="#e8b3a0" opacity="0.65"/>
        <path d="M-12 118 Q 0 108 12 118" transform="translate(68 0)" fill="none" stroke="#23262a" stroke-width="5" stroke-linecap="round"/>
        <path d="M-12 118 Q 0 108 12 118" transform="translate(132 0)" fill="none" stroke="#23262a" stroke-width="5" stroke-linecap="round"/>
        <path d="M90 136 Q 100 152 110 136 Q 100 142 90 136 Z" fill="#23262a"/>
        <path d="M150 96 L 154 88 M158 99 L 165 94" stroke="#23262a" stroke-width="3" stroke-linecap="round"/>
    <g transform="translate(168 178)"><path d="M-9 4 L 9 4 L 7 -8 C 7 -14 -7 -14 -7 -8 Z" fill="#c96a4a" stroke="#23262a" stroke-linejoin="round" stroke-linecap="round" stroke-width="4"/>
        <rect x="-12" y="4" width="24" height="8" rx="3" fill="#8f4630" stroke="#23262a" stroke-linejoin="round" stroke-linecap="round" stroke-width="3.5"/>
        <circle cx="0" cy="-14" r="4" fill="#d24b42"/></g>
  </svg>